<svg width="638" height="123" viewBox="0 0 638 123" fill="none" xmlns="http://www.w3.org/2000/svg">
<path d="M69.754 80.2227L51.0583 113.515C50.7271 114.08 50.3444 114.753 49.6047 114.937C48.6193 115.183 47.429 114.689 47.2417 113.731C47.1332 113.179 47.2607 112.51 47.2892 111.946L48.7483 83.5021L49.3061 74.3669C49.3468 72.7187 48.869 72.3185 46.9255 72.3283L35.3932 72.3368C33.3709 72.3368 27.9244 73.1651 29.2803 70.0061L34.9521 56.8252C36.3283 53.8122 36.1899 51.4621 32.0558 51.4427L21.0758 51.4378C20.005 51.439 16.9702 51.6908 16.1152 51.3028L15.8831 51.1921C15.2398 50.8515 14.8312 50.1776 14.4865 49.6071L0.493126 23.0738C-0.315237 21.6373 -0.282664 20.3126 1.75928 20.0122L100.259 20C103.752 20.0255 101.024 23.8231 100.334 25.0967L87.3898 49.6947C86.2619 51.6178 85.1395 51.3137 82.9965 51.315L66.2619 51.3064C64.3428 51.3064 64.1405 51.8781 63.9003 53.5872L63.5814 55.829C63.2258 57.8361 61.8835 60.1557 65.0947 60.146L77.2377 60.1399C81.1316 60.1497 80.0947 61.5315 78.937 63.6541L69.754 80.2227Z" fill="white"/>
<path d="M185.612 99H138.284L137.264 90.534C138.148 89.378 140.018 88.256 142.874 87.168V40.554C140.086 39.534 138.216 38.378 137.264 37.086L138.284 28.62H184.796V46.368L177.248 47.286C175.684 45.926 174.426 43.41 173.474 39.738H157.562V57.282H171.74C172.556 55.242 173.406 53.814 174.29 52.998L180.716 53.712V71.868L174.29 72.684C173.406 72.004 172.556 70.576 171.74 68.4H157.562V87.882H174.29C175.174 84.346 176.432 81.83 178.064 80.334L185.612 81.252V99ZM215.606 57.588C209.35 57.588 206.222 62.96 206.222 73.704C206.222 79.144 207.072 82.952 208.772 85.128C210.54 87.236 213.056 88.29 216.32 88.29C221.488 88.29 226.044 87.814 229.988 86.862L233.048 94.716C230.872 96.144 227.948 97.368 224.276 98.388C220.604 99.34 217.034 99.816 213.566 99.816C198.878 99.816 191.534 91.316 191.534 74.316C191.534 64.388 194.084 57.248 199.184 52.896C203.74 49.088 209.282 47.184 215.81 47.184C222.338 47.184 227.778 48.408 232.13 50.856C232.198 51.536 232.232 52.182 232.232 52.794C232.232 56.67 231.348 60.342 229.58 63.81H220.604C219.652 62.11 219.074 60.07 218.87 57.69C218.054 57.622 216.966 57.588 215.606 57.588ZM260.72 99.816C252.696 99.816 246.746 97.674 242.87 93.39C238.994 89.106 237.056 82.646 237.056 74.01C237.056 65.306 239.198 58.676 243.482 54.12C247.834 49.496 254.056 47.184 262.148 47.184C270.24 47.184 276.224 49.224 280.1 53.304C284.044 57.384 286.016 63.776 286.016 72.48C286.016 81.116 283.806 87.848 279.386 92.676C275.034 97.436 268.812 99.816 260.72 99.816ZM251.744 73.092C251.744 83.972 255.008 89.412 261.536 89.412C264.868 89.412 267.316 88.188 268.88 85.74C270.512 83.224 271.328 79.144 271.328 73.5C271.328 62.892 267.996 57.588 261.332 57.588C258.068 57.588 255.654 58.778 254.09 61.158C252.526 63.47 251.744 67.448 251.744 73.092ZM323.274 39.738C320.962 39.126 318.548 38.82 316.032 38.82C313.516 38.82 311.476 39.466 309.912 40.758C308.416 41.982 307.668 43.75 307.668 46.062C307.668 48.306 308.246 50.074 309.402 51.366C310.558 52.658 312.836 53.78 316.236 54.732L325.314 57.384C330.21 58.812 334.086 61.056 336.942 64.116C339.866 67.108 341.328 71.528 341.328 77.376C341.328 84.312 338.812 89.786 333.78 93.798C328.816 97.81 322.628 99.816 315.216 99.816C311.136 99.816 306.92 99.306 302.568 98.286C298.284 97.198 294.714 95.702 291.858 93.798C291.858 93.39 291.858 92.608 291.858 91.452C291.858 90.296 292.096 88.324 292.572 85.536C293.048 82.748 293.728 80.47 294.612 78.702H304.302C305.39 80.81 306.036 83.632 306.24 87.168C308.62 88.188 311.374 88.698 314.502 88.698C317.698 88.698 320.316 87.95 322.356 86.454C324.396 84.958 325.416 82.816 325.416 80.028C325.416 78.736 325.314 77.682 325.11 76.866C324.906 75.982 324.26 75.064 323.172 74.112C322.152 73.092 320.656 72.276 318.684 71.664L308.178 68.604C297.502 65.544 292.164 58.744 292.164 48.204C292.164 42.016 294.408 37.086 298.896 33.414C303.384 29.674 309.232 27.804 316.44 27.804C323.716 27.804 330.822 29.436 337.758 32.7C337.758 33.108 337.758 33.89 337.758 35.046C337.758 36.202 337.52 38.174 337.044 40.962C336.568 43.75 335.888 46.028 335.004 47.796H325.314C324.158 46.164 323.478 43.478 323.274 39.738ZM346.029 48C349.769 47.184 353.135 46.776 356.127 46.776C359.119 46.776 361.601 46.844 363.573 46.98V51.978C368.129 48.782 372.991 47.184 378.159 47.184C384.959 47.184 389.889 49.122 392.949 52.998C396.009 56.874 397.539 63.334 397.539 72.378C397.539 77.206 396.825 81.456 395.397 85.128C393.969 88.8 392.031 91.656 389.583 93.696C384.891 97.776 379.315 99.816 372.855 99.816C370.067 99.816 367.415 99.544 364.899 99V107.772C368.911 108.86 371.495 110.118 372.651 111.546L371.631 119.4H346.029L345.009 111.546C345.893 110.322 347.763 109.166 350.619 108.078V59.322C348.239 58.506 346.369 57.35 345.009 55.854L346.029 48ZM371.835 89.412C375.235 89.412 377.921 87.916 379.893 84.924C381.865 81.864 382.851 77.682 382.851 72.378C382.851 67.006 382.307 63.334 381.219 61.362C380.131 59.39 378.159 58.404 375.303 58.404C370.951 58.404 367.483 59.424 364.899 61.464V88.596C367.007 89.14 369.319 89.412 371.835 89.412ZM404.848 55.548C404.848 54.528 404.882 53.44 404.95 52.284C411.274 48.884 418.074 47.184 425.35 47.184C432.626 47.184 437.828 48.578 440.956 51.366C444.152 54.086 445.75 58.642 445.75 65.034V86.76C448.13 87.236 450 87.814 451.36 88.494V97.368C447.892 99 442.928 99.816 436.468 99.816C435.788 98.048 435.21 95.906 434.734 93.39C431.81 97.674 426.506 99.816 418.822 99.816C414.266 99.816 410.356 98.49 407.092 95.838C403.896 93.186 402.298 89.582 402.298 85.026C402.298 80.47 403.794 76.9 406.786 74.316C409.846 71.664 414.368 70.338 420.352 70.338H431.47V65.442C431.47 60.138 428.648 57.486 423.004 57.486C420.896 57.486 419.162 57.69 417.802 58.098C417.666 60.954 417.258 63.164 416.578 64.728H406.582C405.426 62.348 404.848 59.288 404.848 55.548ZM423.208 89.412C426.676 89.412 429.43 88.392 431.47 86.352V77.988H424.33C419.434 77.988 416.986 79.858 416.986 83.598C416.986 85.298 417.496 86.692 418.516 87.78C419.604 88.868 421.168 89.412 423.208 89.412ZM485.604 60.546C480.436 60.546 476.866 61.532 474.894 63.504V86.862C480.402 87.882 484.176 89.31 486.216 91.146L485.196 99H456.024L455.004 91.146C455.956 89.854 457.826 88.698 460.614 87.678V59.322C458.234 58.506 456.364 57.35 455.004 55.854L456.024 48C459.764 47.184 463.13 46.776 466.122 46.776C469.114 46.776 471.596 46.844 473.568 46.98V53.406C475.132 51.57 477.138 50.074 479.586 48.918C482.034 47.694 484.244 47.082 486.216 47.082C488.256 47.082 489.65 47.252 490.398 47.592L490.092 60.852C488.732 60.648 487.236 60.546 485.604 60.546ZM494.344 26.58C498.152 25.696 501.688 25.254 504.952 25.254C508.216 25.254 510.97 25.356 513.214 25.56V87.678C515.866 88.698 517.736 89.854 518.824 91.146L517.804 99H494.344L493.324 91.146C494.276 89.854 496.146 88.698 498.934 87.678V37.902C496.554 37.086 494.684 35.93 493.324 34.434L494.344 26.58ZM532.186 99L514.132 72.582L525.352 57.996C524.196 57.316 523.38 56.602 522.904 55.854L523.924 48H546.364L547.384 55.854C545.888 57.758 543.066 59.254 538.918 60.342L529.126 71.562L540.652 86.76C544.868 87.712 547.826 89.174 549.526 91.146L548.506 99H532.186Z" fill="white"/>
</svg>
